<svg xmlns="http://www.w3.org/2000/svg" viewBox="0 0 349.97 117"><defs><style>.cls-1,.cls-2{fill:#fff;}.cls-2{font-size:80px;font-family:ForteMT, Forte;}</style></defs><title>Asset 3</title><g id="Layer_2" data-name="Layer 2"><g id="Layer_1-2" data-name="Layer 1"><path class="cls-1" d="M72,58.08a22,22,0,1,1-22-22A22,22,0,0,1,72,58.08Zm19.57-5.66C90,55.75,88.28,59,86.41,62.21c.54,1,1.08,1.93,1.64,3a112.07,112.07,0,0,1,8,18.56,57.29,57.29,0,0,1,2.41,11.47c.34,4.06.33,8.54-1.61,12.95a14.6,14.6,0,0,1-4.62,5.78c-.23.16-.4.32-.68.49l-.91.52a13,13,0,0,1-1.8.85,18,18,0,0,1-3.72,1c-5.08.73-10-.34-14.65-1.92A78.57,78.57,0,0,1,50,103.55a78.52,78.52,0,0,1-20.37,11.29c-4.62,1.58-9.57,2.65-14.65,1.92a18.09,18.09,0,0,1-3.72-1,13.38,13.38,0,0,1-1.8-.85l-.91-.52c-.28-.17-.45-.33-.68-.49a14.61,14.61,0,0,1-4.62-5.78c-1.94-4.4-2-8.88-1.61-12.95a57.45,57.45,0,0,1,2.4-11.47,112,112,0,0,1,8-18.56c.55-1,1.09-2,1.64-3-1.87-3.2-3.6-6.46-5.18-9.79C4.26,43.41,1,33.94.16,24.15-.23,19.28,0,14.22,2,9.47A15.92,15.92,0,0,1,6.51,3.29L6.89,3l.19-.15.09-.07.2-.14.69-.42a13.92,13.92,0,0,1,1.67-.87A15.51,15.51,0,0,1,13.28.26C18-.52,22.37.58,26.22,1.94a57.37,57.37,0,0,1,10.5,5.2A105,105,0,0,1,50,17.15a104.91,104.91,0,0,1,13.32-10,57.29,57.29,0,0,1,10.5-5.2C77.72.58,82.06-.52,86.81.26a15.49,15.49,0,0,1,3.55,1.07A13.81,13.81,0,0,1,92,2.2l.69.42.2.14.09.07L93.2,3l.38.3a15.89,15.89,0,0,1,4.55,6.18c2,4.75,2.19,9.81,1.8,14.68C99.05,33.94,95.83,43.41,91.59,52.42ZM43.71,98.48A143.12,143.12,0,0,1,24.33,78,151.55,151.55,0,0,1,14,62.75c-.45.89-.9,1.77-1.35,2.72A91.46,91.46,0,0,0,5.93,84.22,55,55,0,0,0,4.47,95.34c0,3.8.5,7.81,2.32,11a10.32,10.32,0,0,0,8.79,5.3c3.78.22,7.87-1,11.78-2.73A74.93,74.93,0,0,0,43.71,98.48ZM86.09,62.75A151.59,151.59,0,0,1,75.75,78a143.08,143.08,0,0,1-19.38,20.5,74.85,74.85,0,0,0,16.35,10.46c3.92,1.69,8,2.95,11.78,2.73a10.32,10.32,0,0,0,8.79-5.3c1.82-3.22,2.33-7.23,2.33-11a54.89,54.89,0,0,0-1.46-11.12,91.49,91.49,0,0,0-6.71-18.76C87,64.52,86.54,63.64,86.09,62.75ZM72.21,40.91l2.14,2.8c1.36,1.85,3.35,4.57,5.73,8.15.4.6.82,1.26,1.24,1.9,1-1.68,1.94-3.36,2.85-5.05,4.31-8.25,8-16.81,9.41-25.32.65-4.21.85-8.48-.31-12.08a11,11,0,0,0-2.72-4.58l-.23-.23-.11-.12-.06-.06s.16.11,0,0l-.65-.48a7.73,7.73,0,0,0-1.11-.72,11.41,11.41,0,0,0-2.46-1c-3.57-1-7.58-.45-11.25.5a55.16,55.16,0,0,0-10.4,4.19A86.24,86.24,0,0,0,50.7,17.72l2,1.79c4.4,4.07,8,7.83,10.88,11s5,5.81,6.46,7.59l2.18,2.77L70,38.16c-1.48-1.76-3.6-4.38-6.55-7.5A127.91,127.91,0,0,0,52.25,20c-.71-.59-1.45-1.19-2.2-1.79-.75.6-1.49,1.2-2.2,1.79A128.13,128.13,0,0,0,36.62,30.65c-2.95,3.12-5.07,5.75-6.55,7.5l-2.2,2.76,2.18-2.77c1.45-1.78,3.59-4.39,6.46-7.59s6.48-7,10.88-11c.65-.59,1.32-1.19,2-1.79A86.2,86.2,0,0,0,35.76,8.83a55.25,55.25,0,0,0-10.4-4.19c-3.67-.95-7.68-1.46-11.25-.5a11.39,11.39,0,0,0-2.46,1,8.1,8.1,0,0,0-1.11.72l-.65.49c-.12.09.07-.06,0,0l-.06.06-.12.12-.23.23A11,11,0,0,0,6.8,11.31c-1.16,3.6-1,7.87-.31,12.08,1.44,8.51,5.1,17.07,9.41,25.32.91,1.7,1.88,3.38,2.85,5.05.42-.65.84-1.3,1.24-1.9,2.38-3.58,4.37-6.3,5.73-8.15l2.14-2.8-2.12,2.82c-1.33,1.87-3.34,4.58-5.63,8.22-.4.64-.83,1.34-1.25,2A170.71,170.71,0,0,0,31.41,72.5,169,169,0,0,0,50,93,169.09,169.09,0,0,0,68.67,72.5,171,171,0,0,0,81.21,54c-.42-.69-.84-1.39-1.25-2-2.29-3.63-4.3-6.35-5.63-8.22Z"/><text class="cls-2" transform="translate(107.59 86.23)">HERO</text></g></g></svg>